<svg width="584" height="56" viewBox="0 0 584 56" fill="none" xmlns="http://www.w3.org/2000/svg">
<rect x="0.5" y="0.5" width="583" height="55" rx="4.5" stroke="#9747FF" stroke-dasharray="10 5"/>
<path fill-rule="evenodd" clip-rule="evenodd" d="M31 28C31 27.5858 31.2239 27.25 31.5 27.25L38.5 27.25C38.7761 27.25 39 27.5858 39 28C39 28.4142 38.7761 28.75 38.5 28.75L31.5 28.75C31.2239 28.75 31 28.4142 31 28Z" fill="#2E3333"/>
<path fill-rule="evenodd" clip-rule="evenodd" d="M41 28C41 27.5858 41.2239 27.25 41.5 27.25L48.5 27.25C48.7761 27.25 49 27.5858 49 28C49 28.4142 48.7761 28.75 48.5 28.75L41.5 28.75C41.2239 28.75 41 28.4142 41 28Z" fill="#2E3333"/>
<path fill-rule="evenodd" clip-rule="evenodd" d="M80.7998 27.9999C80.7998 27.6685 80.9789 27.3999 81.1998 27.3999L86.7998 27.3999C87.0207 27.3999 87.1998 27.6685 87.1998 27.9999C87.1998 28.3313 87.0207 28.5999 86.7998 28.5999L81.1998 28.5999C80.9789 28.5999 80.7998 28.3313 80.7998 27.9999Z" fill="#2E3333"/>
<path fill-rule="evenodd" clip-rule="evenodd" d="M88.7998 27.9999C88.7998 27.6685 88.9789 27.3999 89.1998 27.3999L94.7998 27.3999C95.0207 27.3999 95.1998 27.6685 95.1998 27.9999C95.1998 28.3313 95.0207 28.5999 94.7998 28.5999L89.1998 28.5999C88.9789 28.5999 88.7998 28.3313 88.7998 27.9999Z" fill="#2E3333"/>
<path d="M99.9141 23.1777L97.4465 33.0748" stroke="#2E3333" stroke-width="1.5" stroke-linecap="round"/>
<path fill-rule="evenodd" clip-rule="evenodd" d="M102 27.9999C102 27.6685 102.224 27.3999 102.5 27.3999L109.5 27.3999C109.776 27.3999 110 27.6685 110 27.9999C110 28.3313 109.776 28.5999 109.5 28.5999L102.5 28.5999C102.224 28.5999 102 28.3313 102 27.9999Z" fill="#2E3333"/>
<path fill-rule="evenodd" clip-rule="evenodd" d="M147 28C147 27.5858 147.28 27.25 147.625 27.25L156.375 27.25C156.72 27.25 157 27.5858 157 28C157 28.4142 156.72 28.75 156.375 28.75L147.625 28.75C147.28 28.75 147 28.4142 147 28Z" fill="#2E3333"/>
<path fill-rule="evenodd" clip-rule="evenodd" d="M196 27.9999C196 27.6685 196.224 27.3999 196.5 27.3999L203.5 27.3999C203.776 27.3999 204 27.6685 204 27.9999C204 28.3313 203.776 28.5999 203.5 28.5999L196.5 28.5999C196.224 28.5999 196 28.3313 196 27.9999Z" fill="#2E3333"/>
<path d="M208.914 23.1777L206.446 33.0748" stroke="#2E3333" stroke-width="1.5" stroke-linecap="round"/>
<circle cx="216" cy="28" r="3.25" stroke="#2E3333" stroke-width="1.5"/>
<path fill-rule="evenodd" clip-rule="evenodd" d="M246 27.9999C246 27.6685 246.224 27.3999 246.5 27.3999L253.5 27.3999C253.776 27.3999 254 27.6685 254 27.9999C254 28.3313 253.776 28.5999 253.5 28.5999L246.5 28.5999C246.224 28.5999 246 28.3313 246 27.9999Z" fill="#2E3333"/>
<path fill-rule="evenodd" clip-rule="evenodd" d="M274 27.9999C274 27.6685 274.224 27.3999 274.5 27.3999L281.5 27.3999C281.776 27.3999 282 27.6685 282 27.9999C282 28.3313 281.776 28.5999 281.5 28.5999L274.5 28.5999C274.224 28.5999 274 28.3313 274 27.9999Z" fill="#2E3333"/>
<path fill-rule="evenodd" clip-rule="evenodd" d="M278 32C277.669 32 277.4 31.7761 277.4 31.5L277.4 24.5C277.4 24.2239 277.669 24 278 24C278.331 24 278.6 24.2239 278.6 24.5L278.6 31.5C278.6 31.7761 278.331 32 278 32Z" fill="#2E3333"/>
<path d="M257.914 23.1777L255.446 33.0748" stroke="#2E3333" stroke-width="1.5" stroke-linecap="round"/>
<path d="M272.914 23.1777L270.446 33.0748" stroke="#2E3333" stroke-width="1.5" stroke-linecap="round"/>
<circle cx="264" cy="28" r="3.25" stroke="#2E3333" stroke-width="1.5"/>
<circle cx="320" cy="28" r="4.25" stroke="#2E3333" stroke-width="1.5"/>
<circle cx="368" cy="28" r="3.25" stroke="#2E3333" stroke-width="1.5"/>
<path d="M377.914 23.1777L375.446 33.0748" stroke="#2E3333" stroke-width="1.5" stroke-linecap="round"/>
<path fill-rule="evenodd" clip-rule="evenodd" d="M381 27.9999C381 27.6685 381.224 27.3999 381.5 27.3999L388.5 27.3999C388.776 27.3999 389 27.6685 389 27.9999C389 28.3313 388.776 28.5999 388.5 28.5999L381.5 28.5999C381.224 28.5999 381 28.3313 381 27.9999Z" fill="#2E3333"/>
<path fill-rule="evenodd" clip-rule="evenodd" d="M385 32C384.669 32 384.4 31.7761 384.4 31.5L384.4 24.5C384.4 24.2239 384.669 24 385 24C385.331 24 385.6 24.2239 385.6 24.5L385.6 31.5C385.6 31.7761 385.331 32 385 32Z" fill="#2E3333"/>
<path fill-rule="evenodd" clip-rule="evenodd" d="M427 28C427 27.5858 427.28 27.25 427.625 27.25L436.375 27.25C436.72 27.25 437 27.5858 437 28C437 28.4142 436.72 28.75 436.375 28.75L427.625 28.75C427.28 28.75 427 28.4142 427 28Z" fill="#2E3333"/>
<path fill-rule="evenodd" clip-rule="evenodd" d="M432 33C431.586 33 431.25 32.7202 431.25 32.375L431.25 23.625C431.25 23.2798 431.586 23 432 23C432.414 23 432.75 23.2798 432.75 23.625L432.75 32.375C432.75 32.7202 432.414 33 432 33Z" fill="#2E3333"/>
<path fill-rule="evenodd" clip-rule="evenodd" d="M474 27.9999C474 27.6685 474.224 27.3999 474.5 27.3999L481.5 27.3999C481.776 27.3999 482 27.6685 482 27.9999C482 28.3313 481.776 28.5999 481.5 28.5999L474.5 28.5999C474.224 28.5999 474 28.3313 474 27.9999Z" fill="#2E3333"/>
<path fill-rule="evenodd" clip-rule="evenodd" d="M478 32C477.669 32 477.4 31.7761 477.4 31.5L477.4 24.5C477.4 24.2239 477.669 24 478 24C478.331 24 478.6 24.2239 478.6 24.5L478.6 31.5C478.6 31.7761 478.331 32 478 32Z" fill="#2E3333"/>
<path d="M486.914 23.1777L484.446 33.0748" stroke="#2E3333" stroke-width="1.5" stroke-linecap="round"/>
<path fill-rule="evenodd" clip-rule="evenodd" d="M488.8 27.9999C488.8 27.6685 488.979 27.3999 489.2 27.3999L494.8 27.3999C495.021 27.3999 495.2 27.6685 495.2 27.9999C495.2 28.3313 495.021 28.5999 494.8 28.5999L489.2 28.5999C488.979 28.5999 488.8 28.3313 488.8 27.9999Z" fill="#2E3333"/>
<path fill-rule="evenodd" clip-rule="evenodd" d="M492 31.2C491.669 31.2 491.4 31.0209 491.4 30.8L491.4 25.2C491.4 24.979 491.669 24.8 492 24.8C492.331 24.8 492.6 24.979 492.6 25.2L492.6 30.8C492.6 31.0209 492.331 31.2 492 31.2Z" fill="#2E3333"/>
<path fill-rule="evenodd" clip-rule="evenodd" d="M496.8 27.9999C496.8 27.6685 496.979 27.3999 497.2 27.3999L502.8 27.3999C503.021 27.3999 503.2 27.6685 503.2 27.9999C503.2 28.3313 503.021 28.5999 502.8 28.5999L497.2 28.5999C496.979 28.5999 496.8 28.3313 496.8 27.9999Z" fill="#2E3333"/>
<path fill-rule="evenodd" clip-rule="evenodd" d="M500 31.2C499.669 31.2 499.4 31.0209 499.4 30.8L499.4 25.2C499.4 24.979 499.669 24.8 500 24.8C500.331 24.8 500.6 24.979 500.6 25.2L500.6 30.8C500.6 31.0209 500.331 31.2 500 31.2Z" fill="#2E3333"/>
<path fill-rule="evenodd" clip-rule="evenodd" d="M535 28C535 27.5858 535.224 27.25 535.5 27.25L542.5 27.25C542.776 27.25 543 27.5858 543 28C543 28.4142 542.776 28.75 542.5 28.75L535.5 28.75C535.224 28.75 535 28.4142 535 28Z" fill="#2E3333"/>
<path fill-rule="evenodd" clip-rule="evenodd" d="M539 32C538.586 32 538.25 31.7761 538.25 31.5L538.25 24.5C538.25 24.2239 538.586 24 539 24C539.414 24 539.75 24.2239 539.75 24.5L539.75 31.5C539.75 31.7761 539.414 32 539 32Z" fill="#2E3333"/>
<path fill-rule="evenodd" clip-rule="evenodd" d="M545 28C545 27.5858 545.224 27.25 545.5 27.25L552.5 27.25C552.776 27.25 553 27.5858 553 28C553 28.4142 552.776 28.75 552.5 28.75L545.5 28.75C545.224 28.75 545 28.4142 545 28Z" fill="#2E3333"/>
<path fill-rule="evenodd" clip-rule="evenodd" d="M549 32C548.586 32 548.25 31.7761 548.25 31.5L548.25 24.5C548.25 24.2239 548.586 24 549 24C549.414 24 549.75 24.2239 549.75 24.5L549.75 31.5C549.75 31.7761 549.414 32 549 32Z" fill="#2E3333"/>
</svg>
