<svg width="584" height="80" viewBox="0 0 584 80" fill="none" xmlns="http://www.w3.org/2000/svg">
<rect x="0.5" y="0.5" width="583" height="79" rx="4.5" stroke="#9747FF" stroke-dasharray="10 5"/>
<circle cx="40" cy="40" r="20" fill="#FB1F2F"/>
<path fill-rule="evenodd" clip-rule="evenodd" d="M31 40C31 39.5858 31.2239 39.25 31.5 39.25L38.5 39.25C38.7761 39.25 39 39.5858 39 40C39 40.4142 38.7761 40.75 38.5 40.75L31.5 40.75C31.2239 40.75 31 40.4142 31 40Z" fill="white"/>
<path fill-rule="evenodd" clip-rule="evenodd" d="M41 40C41 39.5858 41.2239 39.25 41.5 39.25L48.5 39.25C48.7761 39.25 49 39.5858 49 40C49 40.4142 48.7761 40.75 48.5 40.75L41.5 40.75C41.2239 40.75 41 40.4142 41 40Z" fill="white"/>
<circle cx="96" cy="40" r="20" fill="#FD5030"/>
<path fill-rule="evenodd" clip-rule="evenodd" d="M80.7998 39.9999C80.7998 39.6685 80.9789 39.3999 81.1998 39.3999L86.7998 39.3999C87.0207 39.3999 87.1998 39.6685 87.1998 39.9999C87.1998 40.3313 87.0207 40.5999 86.7998 40.5999L81.1998 40.5999C80.9789 40.5999 80.7998 40.3313 80.7998 39.9999Z" fill="white"/>
<path fill-rule="evenodd" clip-rule="evenodd" d="M88.7998 39.9999C88.7998 39.6685 88.9789 39.3999 89.1998 39.3999L94.7998 39.3999C95.0207 39.3999 95.1998 39.6685 95.1998 39.9999C95.1998 40.3313 95.0207 40.5999 94.7998 40.5999L89.1998 40.5999C88.9789 40.5999 88.7998 40.3313 88.7998 39.9999Z" fill="white"/>
<path d="M99.9141 35.1777L97.4465 45.0748" stroke="white" stroke-width="1.5" stroke-linecap="round"/>
<path fill-rule="evenodd" clip-rule="evenodd" d="M102 39.9999C102 39.6685 102.224 39.3999 102.5 39.3999L109.5 39.3999C109.776 39.3999 110 39.6685 110 39.9999C110 40.3313 109.776 40.5999 109.5 40.5999L102.5 40.5999C102.224 40.5999 102 40.3313 102 39.9999Z" fill="white"/>
<circle cx="152" cy="40" r="20" fill="#FF801F"/>
<path fill-rule="evenodd" clip-rule="evenodd" d="M147 40C147 39.5858 147.28 39.25 147.625 39.25L156.375 39.25C156.72 39.25 157 39.5858 157 40C157 40.4142 156.72 40.75 156.375 40.75L147.625 40.75C147.28 40.75 147 40.4142 147 40Z" fill="white"/>
<circle cx="208" cy="40" r="20" fill="#FFAA2A"/>
<path fill-rule="evenodd" clip-rule="evenodd" d="M196 39.9999C196 39.6685 196.224 39.3999 196.5 39.3999L203.5 39.3999C203.776 39.3999 204 39.6685 204 39.9999C204 40.3313 203.776 40.5999 203.5 40.5999L196.5 40.5999C196.224 40.5999 196 40.3313 196 39.9999Z" fill="#2E3333"/>
<path d="M208.914 35.1777L206.446 45.0748" stroke="#2E3333" stroke-width="1.5" stroke-linecap="round"/>
<circle cx="216" cy="40" r="3.25" stroke="#2E3333" stroke-width="1.5"/>
<circle cx="264" cy="40" r="20" fill="#FED234"/>
<circle cx="264" cy="40" r="4.25" stroke="#2E3333" stroke-width="1.5"/>
<circle cx="320" cy="40" r="20" fill="#CED4DA"/>
<path fill-rule="evenodd" clip-rule="evenodd" d="M302 39.9999C302 39.6685 302.224 39.3999 302.5 39.3999L309.5 39.3999C309.776 39.3999 310 39.6685 310 39.9999C310 40.3313 309.776 40.5999 309.5 40.5999L302.5 40.5999C302.224 40.5999 302 40.3313 302 39.9999Z" fill="#2E3333"/>
<path fill-rule="evenodd" clip-rule="evenodd" d="M330 39.9999C330 39.6685 330.224 39.3999 330.5 39.3999L337.5 39.3999C337.776 39.3999 338 39.6685 338 39.9999C338 40.3313 337.776 40.5999 337.5 40.5999L330.5 40.5999C330.224 40.5999 330 40.3313 330 39.9999Z" fill="#2E3333"/>
<path fill-rule="evenodd" clip-rule="evenodd" d="M334 44C333.669 44 333.4 43.7761 333.4 43.5L333.4 36.5C333.4 36.2239 333.669 36 334 36C334.331 36 334.6 36.2239 334.6 36.5L334.6 43.5C334.6 43.7761 334.331 44 334 44Z" fill="#2E3333"/>
<path d="M313.914 35.1777L311.446 45.0748" stroke="#2E3333" stroke-width="1.5" stroke-linecap="round"/>
<path d="M328.914 35.1777L326.446 45.0748" stroke="#2E3333" stroke-width="1.5" stroke-linecap="round"/>
<circle cx="320" cy="40" r="3.25" stroke="#2E3333" stroke-width="1.5"/>
<circle cx="376" cy="40" r="20" fill="#AFDEA1"/>
<circle cx="368" cy="40" r="3.25" stroke="#2E3333" stroke-width="1.5"/>
<path d="M377.914 35.1777L375.446 45.0748" stroke="#2E3333" stroke-width="1.5" stroke-linecap="round"/>
<path fill-rule="evenodd" clip-rule="evenodd" d="M381 39.9999C381 39.6685 381.224 39.3999 381.5 39.3999L388.5 39.3999C388.776 39.3999 389 39.6685 389 39.9999C389 40.3313 388.776 40.5999 388.5 40.5999L381.5 40.5999C381.224 40.5999 381 40.3313 381 39.9999Z" fill="#2E3333"/>
<path fill-rule="evenodd" clip-rule="evenodd" d="M385 44C384.669 44 384.4 43.7761 384.4 43.5L384.4 36.5C384.4 36.2239 384.669 36 385 36C385.331 36 385.6 36.2239 385.6 36.5L385.6 43.5C385.6 43.7761 385.331 44 385 44Z" fill="#2E3333"/>
<circle cx="432" cy="40" r="20" fill="#5DE5A5"/>
<path fill-rule="evenodd" clip-rule="evenodd" d="M427 40C427 39.5858 427.28 39.25 427.625 39.25L436.375 39.25C436.72 39.25 437 39.5858 437 40C437 40.4142 436.72 40.75 436.375 40.75L427.625 40.75C427.28 40.75 427 40.4142 427 40Z" fill="#2E3333"/>
<path fill-rule="evenodd" clip-rule="evenodd" d="M432 45C431.586 45 431.25 44.7202 431.25 44.375L431.25 35.625C431.25 35.2798 431.586 35 432 35C432.414 35 432.75 35.2798 432.75 35.625L432.75 44.375C432.75 44.7202 432.414 45 432 45Z" fill="#2E3333"/>
<circle cx="488" cy="40" r="20" fill="#57D084"/>
<path fill-rule="evenodd" clip-rule="evenodd" d="M474 39.9999C474 39.6685 474.224 39.3999 474.5 39.3999L481.5 39.3999C481.776 39.3999 482 39.6685 482 39.9999C482 40.3313 481.776 40.5999 481.5 40.5999L474.5 40.5999C474.224 40.5999 474 40.3313 474 39.9999Z" fill="#2E3333"/>
<path fill-rule="evenodd" clip-rule="evenodd" d="M478 44C477.669 44 477.4 43.7761 477.4 43.5L477.4 36.5C477.4 36.2239 477.669 36 478 36C478.331 36 478.6 36.2239 478.6 36.5L478.6 43.5C478.6 43.7761 478.331 44 478 44Z" fill="#2E3333"/>
<path d="M486.914 35.1777L484.446 45.0748" stroke="#2E3333" stroke-width="1.5" stroke-linecap="round"/>
<path fill-rule="evenodd" clip-rule="evenodd" d="M488.8 39.9999C488.8 39.6685 488.979 39.3999 489.2 39.3999L494.8 39.3999C495.021 39.3999 495.2 39.6685 495.2 39.9999C495.2 40.3313 495.021 40.5999 494.8 40.5999L489.2 40.5999C488.979 40.5999 488.8 40.3313 488.8 39.9999Z" fill="#2E3333"/>
<path fill-rule="evenodd" clip-rule="evenodd" d="M492 43.2C491.669 43.2 491.4 43.0209 491.4 42.8L491.4 37.2C491.4 36.979 491.669 36.8 492 36.8C492.331 36.8 492.6 36.979 492.6 37.2L492.6 42.8C492.6 43.0209 492.331 43.2 492 43.2Z" fill="#2E3333"/>
<path fill-rule="evenodd" clip-rule="evenodd" d="M496.8 39.9999C496.8 39.6685 496.979 39.3999 497.2 39.3999L502.8 39.3999C503.021 39.3999 503.2 39.6685 503.2 39.9999C503.2 40.3313 503.021 40.5999 502.8 40.5999L497.2 40.5999C496.979 40.5999 496.8 40.3313 496.8 39.9999Z" fill="#2E3333"/>
<path fill-rule="evenodd" clip-rule="evenodd" d="M500 43.2C499.669 43.2 499.4 43.0209 499.4 42.8L499.4 37.2C499.4 36.979 499.669 36.8 500 36.8C500.331 36.8 500.6 36.979 500.6 37.2L500.6 42.8C500.6 43.0209 500.331 43.2 500 43.2Z" fill="#2E3333"/>
<circle cx="544" cy="40" r="20" fill="#268675"/>
<path fill-rule="evenodd" clip-rule="evenodd" d="M535 40C535 39.5858 535.224 39.25 535.5 39.25L542.5 39.25C542.776 39.25 543 39.5858 543 40C543 40.4142 542.776 40.75 542.5 40.75L535.5 40.75C535.224 40.75 535 40.4142 535 40Z" fill="white"/>
<path fill-rule="evenodd" clip-rule="evenodd" d="M539 44C538.586 44 538.25 43.7761 538.25 43.5L538.25 36.5C538.25 36.2239 538.586 36 539 36C539.414 36 539.75 36.2239 539.75 36.5L539.75 43.5C539.75 43.7761 539.414 44 539 44Z" fill="white"/>
<path fill-rule="evenodd" clip-rule="evenodd" d="M545 40C545 39.5858 545.224 39.25 545.5 39.25L552.5 39.25C552.776 39.25 553 39.5858 553 40C553 40.4142 552.776 40.75 552.5 40.75L545.5 40.75C545.224 40.75 545 40.4142 545 40Z" fill="white"/>
<path fill-rule="evenodd" clip-rule="evenodd" d="M549 44C548.586 44 548.25 43.7761 548.25 43.5L548.25 36.5C548.25 36.2239 548.586 36 549 36C549.414 36 549.75 36.2239 549.75 36.5L549.75 43.5C549.75 43.7761 549.414 44 549 44Z" fill="white"/>
</svg>
