<svg width="36" height="36" viewBox="0 0 36 36" fill="none" xmlns="http://www.w3.org/2000/svg">
<circle cx="18" cy="18" r="18" fill="#F9CC00"/>
<path d="M25.7039 5.04043C25.6571 5.04043 25.6081 5.04155 25.558 5.04378C24.9343 5.0616 24.755 5.10949 24.1836 5.40354C23.6601 5.6742 23.317 5.98829 22.9283 6.55859C22.5741 7.07651 22.3268 7.75369 22.2567 8.38856C22.1475 9.38874 21.9715 10.2854 21.7989 10.7164C21.6942 10.9804 21.4124 11.368 21.2498 11.4727C21.1885 11.5128 21.1417 11.5607 21.1495 11.5818C21.1662 11.632 21.4113 11.6732 21.5661 11.6509C21.7811 11.6197 22.1163 11.476 22.3547 11.3156C22.5296 11.1976 22.5697 11.1998 22.5418 11.329C22.4705 11.6698 22.4538 11.8246 22.4449 12.2434C22.4338 12.7892 22.4761 12.9986 22.6877 13.4219C22.8058 13.6591 23.0475 13.9844 23.0798 13.9509C23.0876 13.9431 23.072 13.8552 23.0475 13.7538C22.9439 13.3472 22.9294 13.1356 22.9807 12.777C23.0709 12.1332 23.2279 11.6743 23.5799 11.0383C23.6601 10.8913 23.7659 10.6931 23.8127 10.5984C23.8606 10.5037 23.9564 10.33 24.0243 10.2119C24.2192 9.87775 24.2337 9.92898 24.2114 10.9047C24.2025 11.3502 24.1791 11.7779 24.1624 11.8559C24.1457 11.9338 24.139 12.004 24.1468 12.0118C24.1691 12.0341 24.3005 11.8637 24.4409 11.6309C24.6803 11.2344 24.9187 10.6507 24.961 10.3611C24.9744 10.2754 24.9978 10.1696 25.0145 10.1272C25.039 10.0615 25.0457 9.46899 25.0279 9.02789C25.0234 8.92097 25.0256 8.91763 25.1337 8.92654C25.2506 8.93656 25.724 8.84968 25.7775 8.80847C25.7953 8.79511 25.8543 8.76949 25.91 8.75055C26.0916 8.6893 26.517 8.35737 26.517 8.27607C26.517 8.25713 26.4803 8.24042 26.4369 8.24042C26.2353 8.24042 25.9735 8.03548 25.9189 7.83388C25.9011 7.76706 25.8955 7.6334 25.9067 7.53873C25.9356 7.28923 26.1061 7.10433 26.4034 6.99852C26.947 6.80361 27.3714 6.99852 27.6398 7.56545C27.7523 7.8027 27.7578 7.83277 27.7556 8.11457C27.75 8.73384 27.6075 9.04574 26.9091 9.95905C26.8055 10.0949 26.6785 10.2687 26.6262 10.3467C26.575 10.4246 26.5237 10.4959 26.5137 10.5037C26.5037 10.5126 26.4045 10.6541 26.2932 10.8189C26.1829 10.9826 25.9858 11.2689 25.8566 11.4538C25.1827 12.415 24.9755 12.9073 24.7528 14.0724C24.6815 14.4488 24.6781 14.676 24.7394 15.0258C24.8898 15.8779 25.3286 16.5873 26.4547 17.7969C26.9659 18.346 27.3424 18.8595 27.5484 19.2895C27.642 19.4844 27.6554 19.5401 27.6565 19.7717C27.6576 20.0613 27.6309 20.1193 27.4192 20.2908C27.2577 20.4211 27.0729 20.4334 26.7632 20.3342C26.3756 20.2106 26.1239 20.0524 25.8087 19.7328C25.6527 19.5757 25.4712 19.3697 25.4066 19.2739C25.2283 19.0132 24.7517 18.2881 24.6492 18.1188C24.5233 17.9128 24.4443 17.7869 24.2661 17.514C24.1814 17.3837 24.1068 17.2656 24.1001 17.25C24.0845 17.2155 23.5577 16.3991 23.4619 16.2632C23.2681 15.9892 23.2101 15.9123 22.9228 15.547C22.6109 15.1516 21.8056 14.3118 21.4849 14.0478C21.1173 13.746 20.6785 13.4809 19.9333 13.1122C19.5078 12.9017 19.1603 12.7135 19.1614 12.6934C19.1614 12.6711 19.2405 12.6555 19.3775 12.6511C19.6059 12.6455 19.8498 12.552 20.0013 12.4127C20.0714 12.3492 20.0759 12.3481 20.1906 12.4027C20.4334 12.5185 20.7798 12.4985 20.9046 12.3604C20.9558 12.3036 20.9513 12.2991 20.8177 12.2401C20.6016 12.1443 20.5281 12.0151 20.5281 11.7333V11.4994L20.6851 11.4626C20.8812 11.417 21.1296 11.2644 21.2454 11.1185C21.349 10.9859 21.4537 10.7665 21.4548 10.6774C21.4548 10.6273 21.4381 10.6373 21.3623 10.7286C21.261 10.8523 21.0315 10.9759 20.9046 10.9759C20.752 10.9759 20.5437 10.8189 20.5437 10.703C20.5437 10.6819 20.6094 10.6562 20.6929 10.644C20.9302 10.6095 21.105 10.4892 21.1541 10.3277C21.173 10.2664 21.1641 10.262 21.0204 10.2764C20.6807 10.3087 20.6361 10.204 20.6306 9.37979L20.6261 8.76608L20.7019 8.70482C20.7442 8.67029 20.8433 8.61015 20.9235 8.57005C21.0961 8.48206 21.2521 8.31165 21.3378 8.11896C21.4091 7.95857 21.4559 7.45513 21.3991 7.45513C21.3813 7.45513 21.3568 7.48631 21.3445 7.52529C21.3055 7.65561 21.1463 7.87837 21.0516 7.93407C20.9191 8.01315 20.7731 8.00424 20.6495 7.90956C20.5916 7.86501 20.5437 7.80931 20.5437 7.78593C20.5437 7.76254 20.5916 7.70239 20.6506 7.65338C20.9903 7.37381 21.2008 6.69996 21.1117 6.17757C21.0705 5.93253 20.9636 5.57945 20.9023 5.48142C20.899 5.47585 20.791 5.53488 20.6618 5.61397C20.5326 5.69305 20.3287 5.79552 20.2095 5.8423C20.0046 5.92361 19.9667 5.92806 19.46 5.92806C19.1659 5.92806 18.6358 5.91804 18.2805 5.9069C17.9263 5.89465 17.5108 5.89799 17.3582 5.91358C17.0352 5.94588 16.9528 5.98932 16.6109 6.31678C16.4895 6.43262 16.3246 6.56627 16.2433 6.61306C16.0629 6.71775 15.7733 6.79461 15.5673 6.79461C15.4815 6.79461 15.3211 6.81131 15.2097 6.83248C14.9836 6.87369 14.9335 6.92381 14.9769 7.06638C14.9925 7.1165 15.0226 7.23679 15.0438 7.3337C15.0828 7.50968 15.0816 7.51302 14.987 7.6322C14.8522 7.80372 14.831 7.90731 14.8099 8.51547C14.8021 8.72709 14.8076 8.90753 14.8232 8.91644C14.8377 8.92535 14.909 8.91087 14.9803 8.88191C15.1451 8.8162 15.3846 8.8407 15.5194 8.93649C15.5728 8.97436 15.6575 9.06903 15.7076 9.147C15.7845 9.2684 15.7978 9.32298 15.7978 9.50342C15.7978 9.62037 15.7778 9.7763 15.7533 9.85093C15.7288 9.92444 15.6987 10.0314 15.6876 10.0871C15.6764 10.1439 15.604 10.2742 15.5283 10.3778C15.2855 10.7075 14.8712 10.9113 14.439 10.9124H14.2597L14.1438 10.732C14.0035 10.5092 13.8721 10.3655 13.7072 10.2575C13.5958 10.184 13.5513 10.1739 13.3296 10.1773C12.8841 10.1817 12.5689 10.3577 12.4174 10.6852C12.3428 10.8467 12.335 10.8957 12.345 11.1485L12.355 11.4314L12.2348 11.427C12.0966 11.4225 11.9474 11.2967 11.6667 10.9436C11.1878 10.3432 10.9907 9.91667 10.8737 9.21494C10.8169 8.8808 10.818 8.89973 10.8559 8.72709C10.9149 8.44864 11.0396 8.25038 11.3281 7.96637C11.6556 7.6456 11.6946 7.55538 11.5798 7.38051C11.5397 7.31925 11.4718 7.2513 11.4284 7.23015C11.3727 7.2023 11.337 7.18448 11.317 7.16331L10.632 6.72781L10.4248 6.70999C10.2299 6.6944 10.2132 6.69885 10.1319 6.78017C10.0584 6.85368 10.045 6.89266 10.045 7.03745C10.045 7.13102 10.0305 7.2346 10.0127 7.26801C9.96815 7.35044 9.8679 7.34598 9.80998 7.25687C9.75764 7.17779 9.73759 6.92274 9.77768 6.85813C9.79216 6.83474 9.80776 6.74675 9.81221 6.66544C9.82446 6.4605 9.74093 6.37139 9.50814 6.34132L8.53356 6.35024C8.49346 6.34689 8.46116 6.3558 8.39656 6.38142C8.27293 6.45493 8.19941 6.55406 8.17269 6.68661C8.15821 6.75789 8.18383 6.83697 8.28184 7.02298C8.35201 7.15552 8.41104 7.28918 8.41104 7.31814C8.41104 7.39722 8.31636 7.48632 8.23394 7.48632C8.15932 7.48632 8.12479 7.44845 7.96885 7.1945C7.8508 7.00404 7.74832 6.9606 7.58905 7.033C7.28164 7.21344 7.11345 7.52196 6.97979 7.86393C6.91519 8.04771 6.91965 8.10897 7.01432 8.29831C7.12904 8.52887 7.21703 8.56786 7.57123 8.5467C7.89757 8.52887 7.96997 8.56786 7.96997 8.75832C7.96997 8.84409 7.94881 8.88307 7.86416 8.94656C7.74721 9.03677 7.61355 9.0546 7.33844 9.0145C7.17805 8.99223 7.15578 8.99557 7.07112 9.06796C6.99093 9.13702 6.9809 9.16598 6.98536 9.30632L6.98982 9.46671C7.08672 9.73179 6.62672 9.6672 7.27941 10.2608C7.32284 10.2898 7.41529 10.3221 7.48546 10.3332C7.62246 10.3555 7.64585 10.341 7.96106 10.0581C8.23172 9.8153 8.47675 9.95898 8.46117 10.351C8.44557 10.7108 8.2217 10.9102 7.75501 10.9737C7.59796 10.9948 7.45539 11.0037 7.43757 10.9926C7.41864 10.9815 7.40416 10.987 7.40416 11.006C7.40416 11.0539 7.66813 11.2154 7.87419 11.2933C8.01564 11.3468 8.09472 11.3568 8.28852 11.3435C8.42107 11.3357 8.55807 11.3112 8.59482 11.2922C8.70843 11.231 8.73405 11.2788 8.71288 11.5094C8.69061 11.7556 8.63492 11.907 8.53133 12.0006C8.3598 12.1577 8.23172 12.1721 7.8998 12.0775C7.78285 12.044 7.68706 12.024 7.68706 12.0329C7.68706 12.0407 7.70823 12.0875 7.73273 12.1354C7.80847 12.2824 7.98445 12.4116 8.21167 12.4851C8.32974 12.5241 8.43889 12.5664 8.45448 12.582C8.47119 12.5976 8.43889 12.6477 8.37651 12.7034C8.24063 12.8237 8.09027 12.8282 7.82852 12.7201C7.59239 12.6221 7.58125 12.6221 7.60575 12.7279C7.61689 12.7758 7.63249 12.8694 7.64028 12.9373C7.65699 13.0832 7.75501 13.2837 7.8675 13.4029C8.13371 13.6847 8.73848 13.7114 9.18401 13.4597C9.27646 13.4073 9.36668 13.365 9.3845 13.365C9.43907 13.365 9.41902 13.6123 9.35442 13.7393C9.32101 13.8061 9.23302 13.9119 9.15951 13.9743L9.02696 14.0879H9.18289C9.38338 14.0868 9.84337 13.9888 10.1274 13.8863C10.3847 13.7927 10.4092 13.7894 10.4315 13.8473C10.4538 13.9063 10.1909 14.9243 10.1063 15.1048C10.0662 15.1884 9.97039 15.3276 9.89131 15.4122C9.76323 15.5503 9.72647 15.5704 9.56608 15.596C9.43242 15.6172 9.34666 15.6138 9.24084 15.5815C9.06152 15.5281 8.98913 15.4635 8.90782 15.2853C8.85435 15.1683 8.84656 15.1093 8.86437 14.9299C8.87775 14.7963 8.87328 14.7161 8.85435 14.7161C8.802 14.7161 8.6004 14.9734 8.52355 15.1393C8.34979 15.5125 8.34311 15.8255 8.50016 16.1718C8.64829 16.4993 8.98579 16.7388 9.41683 16.8223C9.57722 16.8535 9.67969 16.8546 9.90023 16.8256C10.4861 16.7466 10.8826 16.5394 11.1288 16.1818C11.2279 16.037 11.2714 16.0014 11.4072 15.958C11.6801 15.87 11.9942 15.6773 12.2604 15.4334C12.3595 15.3431 12.4342 15.3587 12.4342 15.4701C12.4342 15.5269 12.6213 15.9424 12.6937 16.0471C12.7282 16.0983 12.7037 16.1317 12.4765 16.3489C12.335 16.4837 12.1023 16.6842 11.9575 16.7944C11.64 17.0384 10.9773 17.4828 10.9316 17.4828C10.9127 17.4828 10.8793 17.5006 10.8559 17.5218C10.7924 17.5797 10.7111 17.6265 10.5006 17.7289C10.0929 17.9261 9.8501 17.9918 9.49702 17.9974C9.29542 18.0007 9.25867 17.9929 9.15508 17.9138C9.02811 17.8169 9.01585 17.7579 9.08603 17.5875C9.15731 17.4171 9.14728 17.2556 9.06041 17.1731C8.94346 17.064 8.80423 17.0361 8.65164 17.0929C8.35648 17.24 8.01233 17.0963 7.63695 17.4405C7.39636 17.6098 7.36852 17.7791 7.53671 18.033C7.657 18.2157 7.66925 18.3649 7.56901 18.4652C7.5044 18.5287 7.48992 18.5309 7.3507 18.493C7.26828 18.4707 7.19476 18.4429 7.18585 18.4306C7.13239 18.356 6.97423 18.268 6.89627 18.268C6.70691 18.268 6.58662 18.3827 6.50977 18.6378C6.41844 19.2025 6.52202 19.3495 6.58105 19.579C6.59776 19.6904 6.72919 19.8084 6.83834 19.8084C6.96198 19.8084 7.0288 19.7728 7.25602 19.5834C7.51331 19.3696 7.67928 19.3729 7.73496 19.5935C7.78397 19.7884 7.55007 19.9956 7.20813 20.0568C7.01989 20.0913 6.90183 20.1392 6.86285 20.1983C6.84948 20.2172 6.83946 20.2852 6.83834 20.3498C6.88847 20.6371 7.16246 20.8086 7.32954 21.0448L7.49995 21.2029C7.6971 21.38 7.87865 21.4223 8.04015 21.3277C8.20277 21.2319 8.27293 21.0737 8.29632 20.7418C8.32529 20.3542 8.33865 20.3041 8.44446 20.1882C8.51463 20.1114 8.54805 20.0947 8.58703 20.117C8.63047 20.1415 8.64049 20.2038 8.64383 20.4723C8.64606 20.783 8.65163 20.8075 8.74853 20.9646C8.95236 21.2174 9.52934 21.1829 9.91467 20.9434C10.1129 20.8153 10.1764 20.6995 10.1798 20.4544C10.182 20.3052 10.1653 20.2294 10.114 20.1415C10.0093 19.9644 10.0227 19.9232 10.2054 19.8574L10.3658 19.8006L10.4493 19.8831C10.5284 19.9621 10.5306 19.98 10.5217 20.2428C10.5139 20.4466 10.525 20.5536 10.5651 20.6516C10.6108 20.7674 10.7378 20.9089 10.7957 20.9089C10.8057 20.9089 10.8102 20.8242 10.8046 20.7195C10.7924 20.4957 10.8625 20.3241 11.1343 19.9254C11.2267 19.7906 11.3103 19.6424 11.3203 19.5957C11.3548 19.4375 11.3626 19.4275 11.4495 19.4375C11.5074 19.4442 11.5553 19.4809 11.5965 19.5522C11.6556 19.6536 11.6556 19.6647 11.6032 19.9632C11.552 20.2562 11.5564 20.4466 11.6177 20.5625C11.6355 20.5959 11.6645 20.5613 11.7235 20.4366C11.8293 20.2127 11.9028 20.0947 12.0554 19.9008C12.1891 19.7327 12.2771 19.4954 12.2771 19.305C12.2771 19.1379 12.3316 19.0042 12.4174 18.9652C12.57 18.8962 12.6056 19.09 12.5466 19.6703C12.5188 19.9354 12.5422 20.2172 12.5923 20.2172C12.6079 20.2172 12.6435 20.1637 12.6714 20.0991C12.6981 20.0345 12.7827 19.8808 12.8607 19.756C13.0924 19.384 13.3196 18.8182 13.2951 18.6734C13.2873 18.6322 13.3129 18.5063 13.353 18.3938C13.4076 18.2357 13.4399 18.1878 13.4933 18.18C13.6136 18.1622 13.6704 18.2958 13.6482 18.5431C13.6114 18.9463 13.6125 19.0621 13.6526 19.1557L13.6916 19.2504L13.7896 19.0655C13.8431 18.9641 13.9288 18.806 13.9779 18.7124C14.058 18.562 14.0692 18.5097 14.0692 18.2658C14.0692 18.0575 14.0803 17.9773 14.1182 17.9405C14.185 17.8737 14.2162 17.8782 14.2719 17.9639C14.3087 18.0196 14.312 18.0608 14.2875 18.1444C14.2708 18.2045 14.2418 18.3437 14.224 18.4562C14.1962 18.6244 14.1995 18.6823 14.2429 18.7937C14.2708 18.8683 14.3042 18.9285 14.3187 18.9285C14.332 18.9285 14.3532 18.8706 14.3643 18.7982C14.3755 18.7269 14.4568 18.5186 14.5448 18.3348C14.6706 18.0742 14.7074 17.9639 14.7119 17.828C14.7219 17.5618 14.7252 17.5451 14.7753 17.5451C14.8633 17.5451 14.8945 17.6688 14.8722 17.9249C14.8533 18.1343 14.86 18.19 14.9179 18.3259C14.9558 18.4128 15.0126 18.5086 15.046 18.5386C15.1039 18.591 15.1061 18.5877 15.1073 18.454C15.1084 18.3114 15.1529 18.17 15.3211 17.7734C15.4247 17.5295 15.4715 17.3145 15.4993 16.9637C15.5149 16.761 15.5606 16.6652 15.6408 16.6652C15.6508 16.6652 15.6842 16.683 15.7132 16.7041C15.7544 16.7342 15.77 16.81 15.7833 17.026C15.7989 17.3089 15.8223 17.4738 15.8524 17.525C15.8613 17.5406 15.9237 17.4415 15.9916 17.3056C16.0585 17.1697 16.1698 16.9514 16.24 16.8211C16.3937 16.5326 16.4683 16.1628 16.4372 15.8532L16.416 15.6505L16.5029 15.6716C16.5508 15.6839 16.6621 15.7284 16.7512 15.7719C17.1422 15.9623 17.3583 16.0358 17.5599 16.0481C17.7013 16.057 17.8539 16.0949 18.0466 16.1728C18.2014 16.2352 18.4621 16.3221 18.6269 16.3666C19.0034 16.468 19.1949 16.5627 19.4478 16.771C19.656 16.9425 19.9779 17.2944 19.9779 17.3501C19.9779 17.368 19.8298 17.388 19.6249 17.398C19.4299 17.4069 19.1949 17.4303 19.1014 17.4482C18.6046 17.5428 18.0443 17.8035 17.6523 18.1198C17.2613 18.4361 17.082 18.6065 16.7245 19.0064C16.319 19.4608 16.201 19.5566 15.9648 19.619C15.8924 19.6379 15.4892 19.6669 15.0682 19.6825C14.6082 19.7003 14.2362 19.7304 14.1315 19.7571C13.8943 19.8184 13.6526 19.903 13.6047 19.942C13.5835 19.9598 13.5078 20.0044 13.4376 20.0422C13.2516 20.1425 12.9319 20.4388 12.6969 20.7306C12.5844 20.8721 12.3405 21.1483 12.1556 21.3443C11.6321 21.9046 11.3403 22.0972 10.9749 22.1262C10.7176 22.1474 10.4759 22.0761 10.3067 21.9313L10.1752 21.8199L10.1028 21.938C10.0416 22.036 10.0293 22.0995 10.0293 22.31C10.0293 22.5383 10.0394 22.5795 10.1251 22.7176C10.2432 22.9103 10.5083 23.0596 10.7889 23.0919C11.3147 23.1531 12.111 22.9081 12.5376 22.5539C12.6579 22.4548 12.7058 22.4615 12.7671 22.5829C12.8729 22.7934 12.9787 22.897 13.1781 22.9905C13.3329 23.0629 13.3808 23.1019 13.3953 23.1665C13.4699 23.4951 13.5167 23.5797 13.7283 23.7646L13.843 23.8649L13.7673 24.14C13.7261 24.2903 13.6525 24.4697 13.6035 24.5398C13.4777 24.7203 13.1491 24.9531 12.9397 25.0132C12.8428 25.0399 12.7203 25.0756 12.6657 25.0923C12.5053 25.1402 11.9829 25.1658 11.9128 25.1279C11.8571 25.0978 11.8515 25.0733 11.8693 24.8963C11.8916 24.6701 11.8649 24.5365 11.7724 24.4184C11.6989 24.326 11.5252 24.2703 11.3726 24.2903C11.0384 24.3471 10.7789 24.5343 10.6163 24.7437L10.5027 24.8807C10.3869 25.021 10.3646 25.1302 10.4314 25.217C10.4526 25.2438 10.555 25.3128 10.6597 25.3685C10.8714 25.4799 10.9738 25.6135 10.9426 25.735C10.9181 25.8319 10.8569 25.8642 10.6419 25.8909C10.4882 25.9098 10.4503 25.902 10.2877 25.8163C10.0561 25.6937 9.93464 25.6726 9.77871 25.7272C9.68403 25.7606 9.63725 25.8029 9.58267 25.9065C9.54258 25.9811 9.51028 26.0813 9.51028 26.1292C9.48355 26.4756 9.5849 26.9724 9.66733 27.1629C9.73304 27.2932 9.80878 27.3333 9.97474 27.3266C10.1106 27.3222 10.1908 27.2787 10.3635 27.1105C10.4782 27.0003 10.5272 26.9735 10.5985 26.9813C10.7232 26.9958 10.7678 27.1228 10.6987 27.2687C10.6575 27.3533 10.6074 27.3912 10.4492 27.4547C10.2231 27.5449 10.1451 27.6418 10.1418 27.8356C10.1396 27.9058 10.1674 28.0083 10.2075 28.0784C10.2944 28.2578 10.5985 28.4961 10.9983 28.5674C11.2712 28.612 11.4984 28.3658 11.5363 27.9827C11.5541 27.7978 11.5708 27.7532 11.6388 27.6986C11.7335 27.624 11.8226 27.6385 11.9094 27.7398C11.9529 27.7911 11.9662 27.8512 11.9618 27.996C11.9506 28.338 11.9573 28.3736 12.0598 28.4783C12.2336 28.6398 12.8383 28.4193 13.0801 28.2444C13.187 28.1742 13.2828 28.0072 13.2828 27.8891C13.2828 27.8334 13.2405 27.6819 13.1881 27.5516C13.0745 27.2665 13.0712 27.1941 13.1703 27.0793C13.2338 27.007 13.2583 26.9969 13.304 27.0259C13.4142 27.0916 13.5067 27.3121 13.5301 27.5616C13.549 27.7577 13.5668 27.8122 13.6258 27.8601C13.7294 27.9448 13.7996 27.9381 13.7684 27.8479C13.7272 27.7298 13.7383 27.5037 13.794 27.3066C13.8241 27.203 13.8486 27.0259 13.8486 26.9112C13.8486 26.7129 13.8898 26.5224 13.9444 26.4612C13.9589 26.4456 13.9901 26.4812 14.0135 26.5392C14.048 26.6227 14.0513 26.7129 14.0279 26.9613C13.9967 27.3066 14.0246 27.4803 14.1293 27.6095C14.2028 27.6997 14.2496 27.6652 14.1995 27.5561C14.1672 27.4848 14.1794 27.4402 14.3097 27.1774C14.4523 26.8878 14.4579 26.8688 14.4712 26.5347C14.479 26.3453 14.4946 26.1894 14.5069 26.1894C14.5191 26.1894 14.5536 26.2429 14.5848 26.3075C14.6249 26.3888 14.6472 26.5236 14.6572 26.7396C14.6695 27.0225 14.6806 27.0649 14.7575 27.1618C14.8956 27.3366 14.9145 27.3222 14.8945 27.0582C14.8789 26.8499 14.8867 26.802 14.9557 26.655C15.1206 26.303 15.2297 26.0034 15.2654 25.8007C15.3233 25.4676 15.3723 25.5501 15.3779 25.9878C15.3834 26.401 15.4336 26.5781 15.5917 26.7363C15.6986 26.8432 15.741 26.8421 15.7131 26.7318C15.6608 26.528 15.6897 26.3364 15.8111 26.0792C15.996 25.6915 16.0851 25.4387 16.1163 25.2148C16.1809 24.7626 16.1765 24.776 16.2589 24.7559C16.5128 24.6913 16.7211 24.7648 16.7802 24.9397C16.8024 25.0088 16.7824 25.07 16.6532 25.3039C16.4193 25.7272 16.397 25.8141 16.4594 26.0402C16.4984 26.1783 16.5195 26.1861 16.583 26.0825C16.6086 26.0413 16.7935 25.8397 16.9929 25.6348C17.6133 24.9977 17.7592 24.7537 17.7135 24.4252C17.6801 24.1768 17.532 23.9618 17.0809 23.5029C16.6598 23.0741 16.5362 22.9148 16.4137 22.6397C16.0673 21.8679 16.5551 21.3722 17.7302 21.2998C17.9362 21.2865 18.2125 21.2943 18.413 21.3154C18.8095 21.3578 19.2795 21.3667 19.4678 21.3355L19.6014 21.3121L19.6638 21.4602C19.7228 21.5983 19.9278 22.2811 20.0258 22.6687C20.0492 22.7645 20.1071 22.9906 20.1528 23.1721C20.2586 23.5909 20.2808 23.8927 20.2129 24.0231C20.1528 24.1378 19.9935 24.2403 19.8743 24.2403C19.6827 24.2414 19.4243 24.0142 19.3241 23.7558C19.2907 23.67 19.2506 23.5954 19.2361 23.5909C19.2205 23.5854 19.1759 23.6299 19.1358 23.6889C19.0167 23.8638 19.0479 24.2459 19.2082 24.5555C19.2784 24.6914 19.4912 24.9186 19.6471 25.0255C19.9868 25.2572 20.4947 25.3207 20.9213 25.1837C21.1229 25.1191 21.1841 25.0801 21.3478 24.9175C21.4526 24.8128 21.5595 24.6925 21.5862 24.6502L21.6341 24.5733L21.8669 24.6814C22.0518 24.7671 22.1487 24.7916 22.3358 24.8005C22.5742 24.8128 22.6989 24.776 22.9907 24.6056C23.0453 24.5733 23.0932 24.57 23.1734 24.5923C23.3349 24.6368 23.6 24.5689 23.8416 24.4229C23.9552 24.3528 24.0744 24.2748 24.1045 24.2481C24.1802 24.1813 24.2237 24.2291 24.315 24.4764C24.423 24.7693 24.4086 25.1759 24.2738 25.6003C24.1234 26.0759 23.8739 26.4256 23.5209 26.6617C23.3449 26.7809 23.3104 26.7921 23.1745 26.7787C22.984 26.7609 22.8748 26.6617 22.778 26.4178C22.6499 26.097 22.6176 26.0358 22.5474 25.9868C22.4449 25.9144 22.2845 25.9288 22.1152 26.0235L21.9359 26.1215C21.6697 26.4022 21.2208 26.7141 21.1618 27.0761C21.1462 27.1396 21.1607 27.183 21.2197 27.2532C21.2866 27.3323 21.33 27.3512 21.4948 27.369C21.6029 27.3813 21.7154 27.4047 21.7455 27.4203C21.9058 27.5049 21.8724 27.7043 21.6831 27.7834C21.5806 27.8268 21.5272 27.8279 21.2632 27.7934C21.0972 27.7711 20.9268 27.7611 20.8834 27.7722C20.7542 27.8045 20.6383 27.9148 20.6372 28.0072C20.6272 28.3826 20.8288 28.8315 21.0003 29.1767C21.0794 29.3338 21.1652 29.3962 21.3022 29.3962C21.3779 29.3962 21.4659 29.3093 21.7443 28.9518C21.9515 28.6878 22.093 28.5831 22.1932 28.6221C22.2768 28.6544 22.2489 28.8114 22.132 28.9662C21.9292 29.2313 21.9114 29.3561 22.0596 29.5009C22.3057 29.7314 22.7791 29.9341 23.1043 29.933C23.2836 29.9263 23.434 29.8428 23.4919 29.7214C23.5353 29.6301 23.5376 29.5766 23.5041 29.3004C23.464 28.9551 23.4908 28.856 23.6311 28.8192C23.7781 28.7813 23.8762 28.9306 23.8762 29.1946C23.8762 29.4674 23.9374 29.6546 24.0688 29.776C24.1914 29.8963 25.0089 29.5877 25.1314 29.4819C25.3275 29.2993 25.3687 29.0776 25.2595 28.7992C25.225 28.7112 25.196 28.6254 25.196 28.6087C25.196 28.5909 25.2573 28.5497 25.333 28.5174C25.421 28.4795 25.4957 28.4182 25.5424 28.3425C25.6093 28.2344 25.6126 28.2088 25.587 27.9393C25.5447 27.4771 25.5525 27.3022 25.6204 27.2276C25.7663 27.066 25.9312 27.2309 25.9657 27.5728C25.9913 27.829 26.0682 28.0317 26.1762 28.1219C26.2631 28.1955 26.3811 28.2322 26.3522 28.1776C26.2486 27.9749 26.2274 27.8892 26.2419 27.7243C26.2508 27.6263 26.2865 27.4915 26.3199 27.4258C26.3533 27.359 26.4224 27.2242 26.4725 27.1251C26.5226 27.026 26.5738 26.9446 26.5861 26.9446C26.6228 26.9435 26.6652 27.046 26.6897 27.1941C26.7019 27.2721 26.7231 27.3568 26.7353 27.3835C26.9113 27.76 27.0194 27.8869 27.163 27.8869C27.2544 27.8869 27.2555 27.897 27.1742 27.692C27.0862 27.4715 27.0873 27.2888 27.1775 27.0226C27.27 26.7497 27.28 26.3086 27.1976 26.1149C27.0828 25.8464 27.182 25.7429 27.3401 25.9667C27.4014 26.0525 27.4404 26.1683 27.4738 26.3621C27.5005 26.5125 27.5495 26.6963 27.5818 26.7709C27.6453 26.9124 27.7689 27.0204 27.848 27.0026C27.8892 26.9926 27.8892 26.9759 27.8491 26.8656C27.7946 26.7141 27.789 26.3621 27.8391 26.2352C27.8592 26.1839 27.8748 26.0336 27.8748 25.8999C27.8759 25.6682 27.8681 25.6404 27.7021 25.3029C27.4994 24.8908 27.4682 24.7404 27.5417 24.5478C27.632 24.3127 27.7667 24.2504 27.9639 24.3517C28.1265 24.4364 28.1889 24.6135 28.2167 25.0768C28.2468 25.5535 28.3125 25.7741 28.4829 25.9545C28.5442 26.0191 28.601 26.0637 28.611 26.0537C28.6199 26.0447 28.6132 25.9645 28.5943 25.8766C28.5464 25.6538 28.5509 25.3319 28.6043 25.2083C28.6277 25.1515 28.6956 24.9499 28.7536 24.7594C28.8349 24.4899 28.8583 24.3584 28.8583 24.1613C28.8583 23.9307 28.8494 23.894 28.7547 23.7369C28.6077 23.4964 28.4417 23.3861 28.1042 23.3104C27.8068 23.2435 27.505 23.2558 27.2967 23.3415C27.1987 23.3816 27.1062 23.4061 27.0917 23.3961C27.0784 23.3861 27.0004 23.297 26.9191 23.2001C26.6807 22.9172 26.4858 22.8025 26.1695 22.7579C25.9078 22.72 25.9 22.7156 25.7463 22.5585C25.4545 22.2589 25.0357 22.0863 24.4119 22.0061C24.2638 21.9871 24.1112 21.9593 24.0722 21.9437C24.0054 21.9181 24.0042 21.9114 24.0454 21.8134C24.1836 21.4948 24.2571 21.2732 24.3016 21.0349C24.3551 20.743 24.3651 20.1505 24.3194 19.872C24.3039 19.7762 24.2972 19.6916 24.305 19.6838C24.3239 19.6648 24.5578 19.9177 24.8129 20.2329C25.4166 20.9792 25.8855 21.4469 26.2374 21.6552C26.674 21.9136 27.056 22.0272 28.0362 22.1954C28.6633 22.3035 28.8292 22.3614 28.9429 22.5162C29.052 22.6643 29.0854 22.8102 29.1255 23.2981C29.169 23.8361 29.2135 23.9641 29.3895 24.0677C29.5788 24.1791 29.6022 24.1713 29.5488 24.0187C29.4664 23.7837 29.4619 23.5287 29.5332 23.0775C29.6501 22.3368 29.6167 21.9827 29.4006 21.7109C29.2815 21.5594 29.2358 21.5238 28.9874 21.379C28.8816 21.3177 28.7958 21.252 28.7958 21.2331C28.7958 21.2141 28.8716 21.1161 28.9651 21.0148C29.3906 20.5537 29.5755 20.1259 29.6122 19.5167C29.6501 18.9086 29.3572 18.1835 28.7368 17.3581C28.455 16.9828 28.4371 16.9338 28.4806 16.6342C28.5218 16.3501 28.573 16.2477 28.7579 16.0773C29.0909 15.7698 29.4741 15.8322 29.7225 16.2354C29.7949 16.3513 29.8183 16.2889 29.7838 16.0706C29.7147 15.6351 29.5643 15.4145 29.2313 15.2586C29.072 15.184 29.0085 15.1728 28.7635 15.1739C28.524 15.1751 28.4527 15.1895 28.2924 15.2619C27.9426 15.4223 27.7265 15.7153 27.6085 16.1886C27.5695 16.3468 27.5283 16.476 27.5161 16.4771C27.4815 16.4771 27.339 16.1764 27.2833 15.9859C27.1752 15.6139 27.2454 14.9534 27.4225 14.6694C27.6152 14.3598 27.8524 14.1559 28.1666 14.0323C28.3592 13.9566 28.4283 13.9477 28.7168 13.9488C29.0788 13.951 29.2213 13.99 29.4575 14.1493C29.5343 14.2005 29.5967 14.2295 29.5967 14.2139C29.5967 14.1203 29.3817 13.8519 29.2046 13.726C28.5208 13.2382 27.6898 13.2961 26.8779 13.8909C26.6406 14.0657 26.517 14.137 26.517 14.1014C26.517 14.029 26.9035 13.6614 27.3947 13.2704C27.4704 13.2103 27.5829 13.1178 27.6453 13.0655C27.7077 13.012 27.8636 12.8851 27.9917 12.7826C28.6021 12.2914 29.2692 11.5585 29.5354 11.0851C29.8785 10.4747 30.128 9.70955 30.2282 8.96328C30.2605 8.71601 30.2382 8.33509 30.1904 8.33509C30.1748 8.33509 30.1625 8.35402 30.1625 8.3763C30.1625 8.48768 29.7871 9.34752 29.57 9.73406C29.5109 9.83764 29.2414 10.2286 29.0921 10.4257C28.7691 10.8523 28.0919 11.5284 27.7545 11.7623C27.7177 11.7879 27.6119 11.8659 27.5183 11.9361C27.3134 12.0909 26.8801 12.3103 26.8345 12.2825C26.8144 12.2691 26.8456 12.1822 26.9158 12.0508C27.0327 11.8358 27.3112 11.3435 27.3658 11.2589C28.2022 9.93344 28.6645 8.81185 28.7079 8.00766C28.738 7.45075 28.6166 6.87935 28.3782 6.45055C28.2134 6.1565 27.7344 5.68533 27.3959 5.48484C26.8122 5.14067 26.4135 5.03263 25.704 5.04043L25.7039 5.04043ZM10.1461 7.31593V7.34044C10.1439 7.33598 10.1439 7.32707 10.1461 7.31593Z" fill="#111111"/>
<path d="M10.3406 28.1465C10.2202 28.6553 10.1829 29.0811 10.5992 29.4151C10.6049 29.0729 10.6752 28.7846 10.8786 28.4215C10.743 28.2878 10.5326 28.1573 10.3406 28.1465Z" fill="#CC0022"/>
<path d="M22.2105 29.521C22.2099 29.9842 22.1719 30.5032 22.9969 30.9601C22.8537 30.5032 22.7745 30.1344 22.8201 29.7618C22.6281 29.6046 22.3911 29.5286 22.2105 29.521Z" fill="#CC0022"/>
<path d="M24.1007 30.5412C24.2243 30.3004 24.28 29.9912 24.2369 29.6978C24.486 29.5096 24.7794 29.4728 24.9726 29.5178C24.9238 29.9652 24.7882 30.3004 24.1007 30.5412Z" fill="#CC0022"/>
<path d="M21.9747 26.1973C21.5001 25.9344 21.1623 25.7474 20.7916 25.8685C21.0109 26.1391 21.2384 26.371 21.419 26.8234C21.7206 26.6447 21.9354 26.4381 21.9747 26.1973Z" fill="#CC0022"/>
<path d="M12.9494 28.2734C12.8379 28.805 12.426 29.1782 11.8982 29.2961C12.0927 28.9805 12.2296 28.7359 12.2423 28.4426C12.4362 28.338 12.6846 28.2537 12.9494 28.2734Z" fill="#CC0022"/>
<path d="M6.52893 6.83818C6.93131 6.78584 7.22533 6.97632 7.5352 7.13892C7.42937 7.36837 7.27412 7.55328 7.08466 7.72703C6.96489 7.36501 6.7786 7.09437 6.52893 6.83818Z" fill="#CC0022"/>
<path d="M9.58216 26.2639C9.1614 26.4325 8.81795 26.7341 8.5968 27.1371C8.95102 27.0706 9.31285 27.0104 9.66707 26.9793C9.71269 26.7601 9.76529 26.5237 9.58216 26.2639Z" fill="#CC0022"/>
<path d="M8.38384 17.2502C8.14748 16.8313 7.85916 16.5842 7.38391 16.614C7.55944 16.8903 7.71215 17.093 7.75144 17.4384C7.99287 17.6722 8.32491 17.413 8.38384 17.2502Z" fill="#CC0022"/>
<path d="M11.2722 24.3923C10.9154 23.9975 10.4871 23.8226 10.0188 23.8733C10.2539 24.1629 10.52 24.4341 10.7139 24.7649C11.0669 24.6248 11.1341 24.512 11.2722 24.3923Z" fill="#CC0022"/>
<path d="M14.6427 10.2419C14.049 9.66379 12.935 9.72285 12.4952 9.16706C12.34 8.96435 12.269 8.76829 12.2443 8.58675C12.1004 7.56426 13.8158 7.16327 13.7651 8.35286C13.7511 8.54112 13.6403 8.69035 13.5585 8.85295C14.0179 9.19488 14.4868 9.52457 14.6427 10.2419Z" fill="#CC0022"/>
<path d="M11.1771 6.07202C11.3533 6.32707 11.3488 6.73028 11.2506 7.12233C11.1492 7.26826 10.5973 6.84167 10.6727 6.75366C10.8622 6.55431 11.025 6.30813 11.1771 6.07202Z" fill="#CC0022"/>
<path d="M8.36292 5.5105C8.82232 5.56285 9.13979 5.96716 9.33813 6.39377C9.13789 6.53077 8.88189 6.56194 8.57646 6.43274C8.59104 6.04848 8.45923 5.82682 8.36292 5.5105Z" fill="#CC0022"/>
<path d="M7.09462 9.52134C6.793 9.50911 6.52242 9.42667 6.27275 9.21509C6.25058 9.91675 6.79173 10.2242 7.24417 10.1696C7.25494 9.98246 7.21819 9.77196 7.09462 9.52134Z" fill="#CC0022"/>
<path d="M6.6539 18.7158C6.21603 18.833 5.61278 19.02 5.52026 19.4388C5.92454 19.3495 6.29777 19.3533 6.65706 19.4243C6.74895 19.2196 6.7255 18.9877 6.65389 18.7158H6.6539Z" fill="#CC0022"/>
<path d="M6.72557 21.7065C6.55385 21.1831 6.70403 20.8688 6.90237 20.5C7.05762 20.5767 7.23631 20.7338 7.36241 20.9398C7.10831 21.1698 6.89603 21.4131 6.72557 21.7065Z" fill="#CC0022"/>
<path d="M9.71875 20.9716C9.61673 21.2377 9.43297 21.6116 8.6073 21.7687C8.77332 21.547 8.89625 21.3398 8.93744 21.0971C9.20105 20.9995 9.53436 20.9456 9.71875 20.9716Z" fill="#CC0022"/>
<path d="M20.724 28.1714C20.333 28.5319 19.8787 28.9115 19.9186 29.4495C20.2329 29.1048 20.6226 28.9875 21.0155 28.9242C21.0034 28.5934 20.89 28.3773 20.724 28.1714Z" fill="#CC0022"/>
</svg>
